<?xml version="1.0" encoding="UTF-8"?>
<svg id="Layer_1" xmlns="http://www.w3.org/2000/svg" version="1.1" viewBox="0 0 500 500">
  <!-- Generator: Adobe Illustrator 29.2.1, SVG Export Plug-In . SVG Version: 2.1.0 Build 116)  -->
  <path d="M466.731,231.121L268.867,33.258c-10.417-10.418-27.311-10.418-37.729,0L33.252,231.121c-10.418,10.418-10.418,27.311,0,37.752l44.345,44.345,120.881,120.858,32.66,32.66c1.69,1.689,3.566,3.121,5.561,4.27,3.426,1.971,7.18,3.121,10.981,3.449,7.578.657,15.392-1.924,21.187-7.719l159.407-159.407,38.456-38.456c10.441-10.441,10.441-27.334,0-37.752ZM89.54,299.914c3.543-3.66,7.25-7.203,11.074-10.582,8.846,8.822,21.023,14.289,34.514,14.289,27.006,0,48.874-21.868,48.874-48.873,0-3.848-.446-7.602-1.314-11.192,5.185-1.548,10.464-2.909,15.791-4.036v169.332l-108.938-108.939ZM246.952,454.536c-1.197-.258-2.37-.727-3.472-1.361-.258-.141-.516-.305-.774-.469-.282-.188-.587-.399-.868-.634-.422-.328-.821-.68-1.197-1.056l-1.244-1.244v-214.968c1.291-.023,2.581-.047,3.895-.047,1.478,0,2.933.023,4.388.047v219.895c-.235-.047-.493-.094-.727-.164ZM288.599,421.781v-182.167c2.792.61,5.538,1.267,8.283,1.994v171.89l-8.283,8.283ZM337.801,372.579v-115.743c24.965,12.318,47.301,29.352,65.72,50.023l-65.72,65.72ZM451.034,259.347l-34.232,34.232c-21.915-24.355-48.827-44.04-79-57.461v-42.351c0-.798-.305-1.549-.845-2.135l-34.678-37.071c-1.924-2.065-5.397-.68-5.397,2.135v65.556c-2.745-.657-5.49-1.244-8.283-1.783v-125.902c0-.892-.375-1.713-1.009-2.299l-34.678-31.792c-2.018-1.854-5.232-.422-5.232,2.299v153.26c-1.455-.023-2.933-.047-4.388-.047-1.29,0-2.604,0-3.895.047v-86.907c0-3.074-3.965-4.294-5.678-1.76-6.452,9.432-18.09,23.627-33.317,30.173-1.173.493-1.924,1.572-1.924,2.839v59.995c-8.024,1.549-15.908,3.543-23.627,5.936-8.846-12.365-23.322-20.436-39.723-20.436-26.982,0-48.85,21.891-48.85,48.873,0,6.687,1.338,13.045,3.778,18.864-4.763,4.153-9.362,8.494-13.773,13.045l-27.311-27.311c-5.162-5.162-5.162-13.538,0-18.7L240.641,48.954c5.162-5.162,13.538-5.162,18.723,0l191.669,191.693c5.162,5.162,5.162,13.538,0,18.7Z" fill="#e8c100"/>
</svg>